<svg id="Camada_1" data-name="Camada 1" xmlns="http://www.w3.org/2000/svg" viewBox="0 0 190.04 98.7"><path d="M87,79s0,22.24,0,22.33c0,5.49-6.8,6.68-10,6.78H57.11v-4.23s19.87,0,19.91,0c4.06-.41,3.57-2.44,3.57-3.11V99.14H67.21C61,99.07,57,96.36,57,93.23c0-.29.13-14,0-14.13h6.29V92.81c-.06.75.23,2.49,3.68,2.54,1.76,0,13.58,0,13.7,0V79Z" transform="translate(-8.09 -9.45)"/><path d="M51.73,74.52V99.35H45.44V74.49L35.69,96.16C34.54,98.78,33,99.7,29.94,99.7s-4.66-.92-5.81-3.54L14.39,74.49V99.35H8.09V74.52c0-2.42,1-3.58,3-4.2,4.78-1.48,8-.2,9.44,3l9.26,21.39,9.56-21.39c1.46-3.24,4.66-4.52,9.46-3C50.77,70.94,51.73,72.1,51.73,74.52Z" transform="translate(-8.09 -9.45)"/><path d="M187,95.15v4.2h-16.4c-.61,0-1.21,0-1.83-.08-6.46-.49-9.68-2.91-9.68-7.23V70.29h6.3V92c0,2.21,1.39,3.14,5.09,3.14Z" transform="translate(-8.09 -9.45)"/><path d="M157.56,103.67h-7.31l-5-4.53-5.06.32h-6.73a14.09,14.09,0,0,1-3.71-.52c-4-1.09-5.94-3.21-5.94-6.69v-15c0-3.8,2.66-6.12,8-6.84a12,12,0,0,1,1.7-.12h12a12.87,12.87,0,0,1,1.75.12c5.29.72,8,3,8,6.84v15c0,3.1-1.14,4.74-3.76,5.83ZM149.22,92V77.66a1.91,1.91,0,0,0-.06-.56c-.37-1.63-2-2.55-4.43-2.55H135.2c-2.79,0-4.6,1.21-4.6,3.11V91.9a2.91,2.91,0,0,0,.12.65c.35,1.73,2,2.71,4.48,2.71h5.73l-5.26-4.75H143l4.58,4.13a3,3,0,0,0,1.6-2A2,2,0,0,0,149.22,92Z" transform="translate(-8.09 -9.45)"/><path d="M120,70.29v4.2h-18l-.61,0c-2.24.2-2.92.57-3.21,1.86a1.72,1.72,0,0,0-.06.53v2.87a1.91,1.91,0,0,0,.06.57c.29,1.68,1.5,2.45,4,2.45h7.63a15.32,15.32,0,0,1,5.39.93c3,1.12,4.48,2.82,4.48,4.63V93c0,2.23-1.33,3.91-4,5.17a13.94,13.94,0,0,1-5.82,1.21H91.81v-4.2h17.38l.66-.05a4.37,4.37,0,0,0,2.67-.88,2.07,2.07,0,0,0,.9-1.49V89.05a1.47,1.47,0,0,0-.48-1.12c-.61-.73-1.45-1.1-3.44-1.25a2.86,2.86,0,0,0-.68-.05h-6.54c-.6,0-1.2,0-1.81-.08-5.4-.56-8.6-3-8.6-5.81V77.07c0-3.22,1.64-5.09,5.4-6.26a17,17,0,0,1,5.07-.52Z" transform="translate(-8.09 -9.45)"/><path d="M198.12,79v.11c-.67-.23-1-.83-1.54-1.21-1.05-.77-2.12-1.63-3.19-2.32-1.83-1.15-3.94-1.8-5.84-3-1.06-.64-2.08-1.44-3.08-2.19a12.26,12.26,0,0,1-2.53-3c-.31-.51-.37-1.14-.77-1.55.13-.89,1.26-.91,2-1.21a22.2,22.2,0,0,1,9.36-1.32c-.12-1-2.52-2.19-3.31-2.76-1.56-1.09-3.17-2.28-4.84-3.29A26.57,26.57,0,0,0,181.07,56c-1.32-.55-4.22-1.09-4.95-2.1a32.7,32.7,0,0,1-3.42-6.48c-1-2.3-2.28-4.71-3.3-7-.5-1.17-.75-2.21-1.31-3.3A43,43,0,0,0,153,20.52a29.16,29.16,0,0,0-6.95-3.32c-1.44-.44-3.17-.19-4.72-.55h-1c-.88-.24-1.6-1.16-2.32-1.64a25.64,25.64,0,0,0-4.73-2.42c-.66-.27-2.44-.93-3.08-.44a.86.86,0,0,0-.66.66c-.37.56,0,1.44.21,2a22,22,0,0,0,2.65,3.74,23.16,23.16,0,0,1,2.42,3.76c1.25,2.69,1.8,5.68,3,8.35a16.15,16.15,0,0,0,1.76,3.08c.52.72,1.47,1.27,1.75,2.21.61.95-.88,4.15-1.21,5.18A20.85,20.85,0,0,0,140.56,54c.57,1.35,1.1,2.93,2.65,3.3l.22-.11c.32-2.64.44-5.18,1.32-7.27a21.25,21.25,0,0,1,2.31-3.29c.52.29.52,1.18.77,1.76.65,1.5,1.31,3.14,2.1,4.61a66.41,66.41,0,0,0,5.37,8.82,25.35,25.35,0,0,0,2.55,2.85c.37.37.81.55,1.09,1h.12v.11c-1.49-.5-2.39-2-3.53-2.85a27.3,27.3,0,0,1-6.28-6.5l-2-4v-.1c-.27.36-.18.78-.32,1.31-.63,2.43-.14,5.17-2.31,6.06-2.48,1-4.29-1.63-5.07-2.85-2.5-4-3.15-10.76-1.43-16.19.38-1.21.43-2.68,1.1-3.63-.1-.86-.81-1.1-1.21-1.65a23.33,23.33,0,0,1-1.76-3,59.26,59.26,0,0,1-2.53-6.48c-.32-.87-.4-1.7-.76-2.53a24.71,24.71,0,0,0-2.43-3.63c-1.15-1.59-4.38-4.68-3.08-7.82,2-5,9.12-1.19,11.88.55a18.84,18.84,0,0,0,2.21,1.64l3.63.23a22.6,22.6,0,0,1,6.16,2c8.34,4.87,13.72,9.83,18.71,18.05a43.67,43.67,0,0,1,2.42,5.51c1.22,2.79,2.58,5.7,4,8.35a22.92,22.92,0,0,0,2,3.74c.36.47,1.33.61,1.87.89,1.63.83,3.54,1.45,5.07,2.42a71.19,71.19,0,0,1,7.92,6c.94.79,1.56,2,2.42,2.85v.44l-2.31.66c-1.72.44-3.19.34-4.84.78a26.88,26.88,0,0,1-3.3.77l.11.1c.63,1.75,4,3.22,5.5,4.3A23.23,23.23,0,0,1,195.92,76l1.44,1.42C197.68,77.88,197.77,78.51,198.12,79Z" transform="translate(-8.09 -9.45)"/><path d="M144.64,22.49c.23.34.27.71.55,1a2.7,2.7,0,0,1-1,2.42l-.1.11L143,23.7a15,15,0,0,1-1.53-2h-.12v-.11a7.35,7.35,0,0,1,2-.23C143.72,21.77,144.32,22,144.64,22.49Z" transform="translate(-8.09 -9.45)"/></svg>