<?xml version="1.0" standalone="no"?>
<!DOCTYPE svg PUBLIC "-//W3C//DTD SVG 20010904//EN"
 "http://www.w3.org/TR/2001/REC-SVG-20010904/DTD/svg10.dtd">
<svg version="1.0" xmlns="http://www.w3.org/2000/svg"
 width="512.000000pt" height="512.000000pt" viewBox="0 0 512.000000 512.000000"
 preserveAspectRatio="xMidYMid meet">

<g transform="translate(0.000000,512.000000) scale(0.100000,-0.100000)"
fill="#000000" stroke="none">
<path d="M412 5100 c-97 -26 -173 -70 -248 -144 -75 -76 -119 -151 -144 -252
-20 -76 -20 -115 -20 -2144 0 -2029 0 -2068 20 -2144 25 -101 69 -176 144
-252 76 -75 151 -119 252 -144 76 -20 115 -20 2144 -20 2029 0 2068 0 2144 20
101 25 176 69 252 144 75 76 119 151 144 252 20 76 20 115 20 2144 0 2029 0
2068 -20 2144 -26 103 -69 177 -149 256 -79 77 -142 114 -247 140 -76 20 -117
20 -2148 19 -2010 0 -2073 -1 -2144 -19z m2550 -643 c70 -137 63 -326 -17
-492 -62 -129 -141 -222 -365 -427 -299 -274 -360 -361 -368 -518 -9 -179 66
-349 236 -533 30 -32 51 -61 49 -64 -13 -12 -200 129 -287 216 -140 141 -200
268 -200 422 0 190 88 311 450 619 280 238 371 341 439 502 24 57 26 75 26
195 0 72 3 129 8 126 4 -2 17 -23 29 -46z m293 -743 c-11 -8 -60 -41 -110 -73
-223 -143 -355 -310 -371 -467 -8 -77 17 -154 100 -299 80 -141 90 -168 89
-232 -2 -71 -37 -145 -105 -218 -58 -62 -141 -128 -151 -119 -3 3 10 35 29 70
61 117 46 200 -71 394 -92 153 -109 201 -108 300 2 242 218 462 613 621 104
42 115 45 85 23z m510 -1281 c64 -21 146 -101 163 -159 52 -178 -62 -342 -333
-476 -95 -48 -218 -92 -236 -86 -6 2 38 35 97 73 119 76 216 165 257 235 35
61 61 163 53 213 -17 106 -111 186 -218 187 -57 0 -64 17 -10 25 20 4 44 8 52
10 28 7 124 -5 175 -22z m-1626 -17 c-2 -2 -51 -13 -109 -26 -159 -34 -250
-73 -250 -110 0 -17 73 -48 150 -64 357 -72 875 -66 1268 15 l94 19 55 -31 55
-32 -33 -14 c-56 -24 -225 -63 -357 -83 -515 -79 -1234 -26 -1434 106 -104 68
12 144 295 194 153 26 280 39 266 26z m-176 -463 c-27 -18 -30 -54 -5 -75 55
-49 261 -79 527 -79 215 0 326 9 502 42 l111 21 66 -37 c36 -20 66 -38 66 -41
0 -21 -197 -74 -380 -101 -165 -25 -580 -24 -740 0 -266 42 -410 98 -410 162
0 41 54 71 184 105 89 24 109 24 79 3z m114 -445 c-9 -89 453 -128 759 -65
l61 13 81 -45 c45 -26 80 -50 79 -56 -6 -19 -192 -74 -307 -91 -156 -22 -483
-15 -615 14 -167 37 -265 89 -265 141 0 33 46 69 114 91 82 25 96 25 93 -2z
m-357 -95 c0 -5 -36 -21 -80 -36 -131 -46 -206 -118 -182 -172 33 -73 334
-151 712 -186 159 -15 639 -5 810 16 345 42 559 108 634 196 33 39 45 39 65 1
67 -128 -239 -256 -746 -312 -670 -74 -1573 29 -1729 197 -15 16 -24 38 -24
57 0 83 185 178 449 231 81 16 91 17 91 8z m2111 -381 c-69 -135 -368 -248
-811 -308 -166 -22 -624 -30 -813 -15 -220 19 -494 66 -537 93 -18 11 45 6
240 -19 173 -22 749 -25 945 -5 298 31 570 90 740 161 90 38 226 118 242 144
5 8 8 8 10 0 2 -6 -5 -29 -16 -51z"/>
</g>
</svg>
