<svg id="Camada_1" data-name="Camada 1" xmlns="http://www.w3.org/2000/svg" viewBox="0 0 126.02 126"><path d="M86,51V96H98V51ZM83,96s0-.48,0-.57C76.49,75.31,70,55.07,63.45,35c-.26-.83-.76-.87-1.49-.87-3.88,0-7.77.09-11.66,0a1.84,1.84,0,0,0-2.14,1.54Q39.94,61.45,31.64,87.24c-.9,2.81-1.77,5.62-2.73,8.67,3.63,0,7,0,10.27,0a1.63,1.63,0,0,0,1.91-1.4c1.42-4.9,3-9.77,4.36-14.67a1.72,1.72,0,0,1,2-1.45q8.3.09,16.57,0a1.57,1.57,0,0,1,1.82,1.34c1.52,4.93,3.12,9.86,4.64,14.79.31,1,.7,1.51,1.88,1.42,1.63-.11,3.27,0,4.91,0ZM127,3.74V125c0,2.11-.7,2-2.73,2H2.72c-2,0-1.72.09-1.72-2V3.59C1,1.48.69,1,2.87,1H124.11C126.3,1,127,1.48,127,3.74ZM91.65,44.93c3.81,0,6.5-2.52,6.48-6.06a6.4,6.4,0,1,0-6.48,6.06Z" transform="translate(-0.98 -1)"/><path d="M63.33,69H48C50.5,60,53,51.71,55.51,43.22,58.07,51.68,60.68,60,63.33,69Z" transform="translate(-0.98 -1)"/></svg>