<svg id="Camada_1" data-name="Camada 1" xmlns="http://www.w3.org/2000/svg" viewBox="0 0 28 27"><g id="icon-89-document-file-sql"><path d="M21,28a2,2,0,0,1-2,2H4a2,2,0,0,1-2-2V5A2,2,0,0,1,4,3H14V9a2,2,0,0,0,2,2h5v2H11a3,3,0,0,0-3,3v7a3,3,0,0,0,3,3H21Z" transform="translate(-2 -3)"/><path d="M15,3l6,7H16a1,1,0,0,1-1-1Z" transform="translate(-2 -3)"/><path d="M18.73,20.94,19.79,22H19a1,1,0,0,1-1-1V18a1,1,0,0,1,1-1h1a1,1,0,0,1,1,1v3a1,1,0,0,1-.2.6l-1.36-1.37Z" transform="translate(-2 -3)"/><path d="M16,21a2,2,0,0,0-2-2H13a1,1,0,1,1,0-2h1a1,1,0,0,1,1,1h1a2,2,0,0,0-2-2H13a2,2,0,0,0,0,4h1a1,1,0,1,1,0,2H13a1,1,0,0,1-1-1H11a2,2,0,0,0,2,2h1A2,2,0,0,0,16,21Zm7-5v7h5V22H24V16Zm5,9H11a2,2,0,0,1-2-2V16a2,2,0,0,1,2-2H28a2,2,0,0,1,2,2v7A2,2,0,0,1,28,25Zm-9-2h1a2,2,0,0,0,.68-.12l.88.89.71-.71-.76-.75A2,2,0,0,0,22,21V18a2,2,0,0,0-2-2H19a2,2,0,0,0-2,2v3A2,2,0,0,0,19,23Z" transform="translate(-2 -3)"/></g></svg>