<svg id="Social_Icons" data-name="Social Icons" xmlns="http://www.w3.org/2000/svg" viewBox="0 0 128 128"><defs><style>.cls-1{fill:none;}</style></defs><g id="Photoshop"><rect class="cls-1" width="128" height="128"/><path d="M128,6V122a6,6,0,0,1-6,6H6a6,6,0,0,1-6-6V6A6,6,0,0,1,6,0H122A6,6,0,0,1,128,6ZM99.32,55.08v-8a1.29,1.29,0,0,0-.59-1.17c-1.92-.88-5.41-1.64-10.41-1.64-10.18,0-16.06,6.27-16.06,13.82,0,6.74,3.43,10.78,11.7,14.76,5.87,3,7.21,4.92,7.21,7,0,2.63-1.92,4.57-6.52,4.57A21.53,21.53,0,0,1,73,81c-.41-.29-.7-.12-.7.47v8.61c0,.47.06.76.47.94,2.5,1.46,6.86,2.51,11.92,2.51,9.6,0,16.7-5,16.7-14.4,0-6.27-2.85-10.55-12-15-6.17-3.22-7.22-4.68-7.22-6.79,0-1.93,1.57-4.28,6.17-4.28a19.54,19.54,0,0,1,10.12,2.64C99,55.85,99.32,55.55,99.32,55.08Zm-32.7-6.91c0-11.36-6.29-20.26-22.4-20.26-5.76,0-11.29.12-15,.29-.47,0-1.28.3-1.28.71v62.9c0,.52.23.7.7.7h8.9c.52,0,.7-.24.7-.7V69.32c1.57,0,2.32.11,4.53.11C55.91,69.43,66.62,63.05,66.62,48.17Z"/><path d="M43.87,37.22c7.74,0,12.33,3.75,12.33,11.19,0,9.31-6.39,11.71-13.2,11.71-2.33,0-3.38,0-4.72-.12V37.4C39.33,37.34,41.54,37.22,43.87,37.22Z"/></g></svg>