<?xml version="1.0" standalone="no"?>
<!DOCTYPE svg PUBLIC "-//W3C//DTD SVG 20010904//EN"
 "http://www.w3.org/TR/2001/REC-SVG-20010904/DTD/svg10.dtd">
<svg version="1.0" xmlns="http://www.w3.org/2000/svg"
 width="512.000000pt" height="512.000000pt" viewBox="0 0 512.000000 512.000000"
 preserveAspectRatio="xMidYMid meet">

<g transform="translate(0.000000,512.000000) scale(0.100000,-0.100000)"
fill="#000000" stroke="none">
<path d="M412 5100 c-97 -26 -173 -70 -248 -144 -75 -76 -119 -151 -144 -252
-20 -76 -20 -115 -20 -2144 0 -2029 0 -2068 20 -2144 25 -101 69 -176 144
-252 76 -75 151 -119 252 -144 76 -20 115 -20 2144 -20 2029 0 2068 0 2144 20
101 25 176 69 252 144 75 76 119 151 144 252 20 76 20 115 20 2144 0 2029 0
2068 -20 2144 -26 103 -69 177 -149 256 -79 77 -142 114 -247 140 -76 20 -117
20 -2148 19 -2010 0 -2073 -1 -2144 -19z m2933 -752 c210 -72 362 -218 438
-422 25 -67 31 -101 35 -193 9 -216 -49 -365 -203 -518 l-90 -90 50 -41 c109
-88 198 -231 231 -369 12 -51 15 -101 12 -185 -7 -188 -63 -313 -198 -451
-125 -126 -299 -198 -478 -199 -146 0 -309 52 -415 133 -26 21 -49 37 -52 37
-3 0 -5 -156 -5 -347 0 -401 -5 -439 -74 -578 -243 -492 -939 -511 -1213 -33
-51 88 -76 179 -81 295 -9 207 50 363 188 504 41 42 84 81 95 87 19 11 19 12
-5 28 -46 31 -155 150 -188 206 -18 31 -45 89 -60 130 -24 67 -27 86 -27 218
0 132 3 151 27 218 15 41 42 99 60 130 33 56 142 175 188 206 24 16 24 17 5
28 -11 6 -54 45 -95 87 -138 141 -197 297 -188 504 4 92 10 126 35 193 40 106
91 185 168 259 99 96 228 162 359 184 28 5 355 8 726 7 l675 -1 80 -27z"/>
<path d="M1910 4149 c-174 -23 -331 -164 -376 -339 -57 -222 65 -453 286 -542
52 -21 73 -23 343 -26 l287 -3 -2 458 -3 458 -235 1 c-129 1 -264 -2 -300 -7z"/>
<path d="M2677 4153 c-4 -3 -7 -211 -7 -460 l0 -454 288 3 c269 3 290 5 342
26 174 70 284 219 297 402 17 239 -157 449 -397 480 -85 11 -513 14 -523 3z"/>
<path d="M1910 3013 c-39 -6 -140 -43 -174 -64 -50 -30 -131 -116 -159 -168
-135 -248 -22 -546 248 -652 57 -22 74 -23 343 -27 l282 -4 0 461 0 461 -257
-1 c-142 -1 -269 -4 -283 -6z"/>
<path d="M3041 3010 c-235 -50 -401 -287 -363 -517 48 -287 339 -459 616 -363
98 34 209 128 255 218 153 299 -51 648 -389 667 -41 2 -95 0 -119 -5z"/>
<path d="M1861 1864 c-235 -63 -384 -308 -330 -543 29 -128 129 -251 254 -312
68 -33 73 -34 195 -34 120 0 128 1 192 32 113 53 202 149 249 268 22 57 23 75
27 333 l4 272 -269 -1 c-201 0 -281 -4 -322 -15z"/>
</g>
</svg>
